<?xml version="1.0" standalone="no"?>
<svg xmlns="http://www.w3.org/2000/svg" viewBox="0 0 1440 800">
    <path fill="#c5e1a5" fill-opacity="1" d="M0,96L18.5,112C36.9,128,74,160,111,176C147.7,192,185,192,222,192C258.5,192,295,192,332,176C369.2,160,406,128,443,122.7C480,117,517,139,554,170.7C590.8,203,628,245,665,250.7C701.5,256,738,224,775,224C812.3,224,849,256,886,256C923.1,256,960,224,997,213.3C1033.8,203,1071,213,1108,224C1144.6,235,1182,245,1218,234.7C1255.4,224,1292,192,1329,202.7C1366.2,213,1403,267,1422,293.3L1440,320L1440,0L1421.5,0C1403.1,0,1366,0,1329,0C1292.3,0,1255,0,1218,0C1181.5,0,1145,0,1108,0C1070.8,0,1034,0,997,0C960,0,923,0,886,0C849.2,0,812,0,775,0C738.5,0,702,0,665,0C627.7,0,591,0,554,0C516.9,0,480,0,443,0C406.2,0,369,0,332,0C295.4,0,258,0,222,0C184.6,0,148,0,111,0C73.8,0,37,0,18,0L0,0Z"></path>
</svg>